<?xml version="1.0" encoding="UTF-8"?>
<svg xmlns="http://www.w3.org/2000/svg" xmlns:xlink="http://www.w3.org/1999/xlink" width="60px" height="60px" viewBox="0 0 60 60" version="1.1">
<g id="surface1">
<path style=" stroke:none;fill-rule:nonzero;fill:rgb(25.098039%,70.196078%,87.843137%);fill-opacity:1;" d="M 30 0 C 13.429688 0 0 13.429688 0 30 C 0 46.570312 13.429688 60 30 60 C 46.570312 60 60 46.570312 60 30 C 60 13.429688 46.570312 0 30 0 Z M 30 0 "/>
<path style=" stroke:none;fill-rule:nonzero;fill:rgb(100%,100%,100%);fill-opacity:1;" d="M 44.597656 17.257812 L 39.238281 44.273438 C 39.238281 44.273438 38.488281 46.148438 36.429688 45.246094 L 24.0625 35.765625 L 19.566406 33.59375 L 12 31.046875 C 12 31.046875 10.835938 30.632812 10.726562 29.734375 C 10.613281 28.835938 12.035156 28.347656 12.035156 28.347656 L 42.125 16.546875 C 42.125 16.546875 44.597656 15.457031 44.597656 17.257812 "/>
<path style=" stroke:none;fill-rule:nonzero;fill:rgb(82.352941%,89.803922%,94.509804%);fill-opacity:1;" d="M 23.113281 43.96875 C 23.113281 43.96875 22.753906 43.9375 22.304688 42.511719 C 21.851562 41.089844 19.566406 33.59375 19.566406 33.59375 L 37.742188 22.054688 C 37.742188 22.054688 38.789062 21.417969 38.753906 22.054688 C 38.753906 22.054688 38.941406 22.164062 38.378906 22.691406 C 37.816406 23.214844 24.101562 35.542969 24.101562 35.542969 "/>
<path style=" stroke:none;fill-rule:nonzero;fill:rgb(70.980392%,81.176471%,89.411765%);fill-opacity:1;" d="M 28.804688 39.402344 L 23.914062 43.859375 C 23.914062 43.859375 23.53125 44.152344 23.113281 43.96875 L 24.050781 35.6875 "/>
</g>
</svg>
